<svg xmlns="http://www.w3.org/2000/svg" xmlns:xlink="http://www.w3.org/1999/xlink" viewBox="0 0 99 57.07"><defs><style>.cls-1{fill:url(#linear-gradient);}.cls-2{fill:#3b3b6b;}.cls-3{fill:#fff;}.cls-4{fill:url(#linear-gradient-2);}.cls-5{fill:url(#linear-gradient-3);}.cls-6{fill:url(#linear-gradient-4);}.cls-7{fill:url(#linear-gradient-5);}.cls-8{fill:url(#linear-gradient-6);}.cls-9{fill:url(#linear-gradient-7);}</style><linearGradient id="linear-gradient" x1="-9.49" y1="9.04" x2="87.95" y2="10.21" gradientUnits="userSpaceOnUse"><stop offset="0" stop-color="#2d5fea"/><stop offset="0.54" stop-color="#ad83ff"/><stop offset="0.59" stop-color="#bb8eeb"/><stop offset="0.72" stop-color="#d8a4c1"/><stop offset="0.83" stop-color="#edb5a3"/><stop offset="0.93" stop-color="#fabe91"/><stop offset="1" stop-color="#ffc28a"/></linearGradient><linearGradient id="linear-gradient-2" x1="-9.66" y1="23.72" x2="87.77" y2="24.89" xlink:href="#linear-gradient"/><linearGradient id="linear-gradient-3" x1="-9.84" y1="38.1" x2="87.6" y2="39.27" xlink:href="#linear-gradient"/><linearGradient id="linear-gradient-4" x1="-9.87" y1="40.54" x2="87.57" y2="41.72" gradientTransform="translate(23.78 -20.26) rotate(26.02)" xlink:href="#linear-gradient"/><linearGradient id="linear-gradient-5" x1="-9.59" y1="17.54" x2="87.85" y2="18.72" xlink:href="#linear-gradient"/><linearGradient id="linear-gradient-6" x1="-9.77" y1="32.22" x2="87.67" y2="33.4" xlink:href="#linear-gradient"/><linearGradient id="linear-gradient-7" x1="-9.94" y1="46.6" x2="87.5" y2="47.78" xlink:href="#linear-gradient"/></defs><g id="Layer_2" data-name="Layer 2"><g id="Layer_2-2" data-name="Layer 2"><path class="cls-1" d="M66.92,0,55.35,5.64l-9.64,4.71-7.24,3.53h0l10.07,5.8,5.27-2.57,9.24-4.51L76.94,5.84ZM43.26,15.76h0Z"/><polygon class="cls-2" points="43.26 15.76 43.26 15.76 43.25 15.76 43.26 15.76"/><polygon class="cls-3" points="43.26 15.76 43.26 15.76 43.25 15.76 43.26 15.76"/><polygon class="cls-4" points="88.04 20.66 75.41 26.82 66.67 31.07 59.64 34.51 49.57 28.7 49.57 28.7 60.23 23.49 69.21 19.12 78.02 14.82 88.04 20.66"/><polygon class="cls-5" points="99 35.17 84.39 42.3 75.82 46.48 70.6 49.02 60.53 43.22 60.52 43.21 71.41 37.9 80.01 33.71 88.98 29.33 99 35.17"/><rect class="cls-6" x="55.73" y="41.33" width="0.01" height="0.01" transform="translate(-12.48 28.64) rotate(-26.02)"/><polygon class="cls-7" points="38.47 13.88 38.47 13.88 26.39 19.78 17.8 23.97 10.07 27.74 0 21.93 13.25 15.46 21.81 11.29 28.45 8.04 38.47 13.88"/><polygon class="cls-8" points="49.57 28.7 38.05 34.33 29.04 38.72 21.18 42.56 11.1 36.74 22.7 31.07 31.45 26.81 39.56 22.86 49.57 28.7 49.57 28.7"/><polygon class="cls-9" points="60.53 43.22 52.59 47.09 42.86 51.84 32.13 57.07 22.05 51.26 35.05 44.92 44.33 40.39 50.52 37.37 60.52 43.21 60.53 43.22"/></g></g></svg>